<!-- Generated by IcoMoon.io -->
<svg version="1.1" xmlns="http://www.w3.org/2000/svg" width="26" height="28" viewBox="0 0 26 28">
<title>bug</title>
<path d="M25.5 15c0 0.547-0.453 1-1 1h-3.5c0 1.953-0.422 3.422-1.047 4.531l3.25 3.266c0.391 0.391 0.391 1.016 0 1.406-0.187 0.203-0.453 0.297-0.703 0.297s-0.516-0.094-0.703-0.297l-3.094-3.078s-2.047 1.875-4.703 1.875v-14h-2v14c-2.828 0-4.891-2.063-4.891-2.063l-2.859 3.234c-0.203 0.219-0.469 0.328-0.75 0.328-0.234 0-0.469-0.078-0.672-0.25-0.406-0.375-0.438-1-0.078-1.422l3.156-3.547c-0.547-1.078-0.906-2.469-0.906-4.281h-3.5c-0.547 0-1-0.453-1-1s0.453-1 1-1h3.5v-4.594l-2.703-2.703c-0.391-0.391-0.391-1.016 0-1.406s1.016-0.391 1.406 0l2.703 2.703h13.188l2.703-2.703c0.391-0.391 1.016-0.391 1.406 0s0.391 1.016 0 1.406l-2.703 2.703v4.594h3.5c0.547 0 1 0.453 1 1zM18 6h-10c0-2.766 2.234-5 5-5s5 2.234 5 5z"></path>
</svg>
