<!-- Generated by IcoMoon.io -->
<svg version="1.1" xmlns="http://www.w3.org/2000/svg" width="24" height="24" viewBox="0 0 24 24">
<title>tag</title>
<path d="M21.3 9.9l-8.6-8.6c-0.2-0.2-0.4-0.3-0.7-0.3h-10c-0.6 0-1 0.4-1 1v10c0 0.3 0.1 0.5 0.3 0.7l8.6 8.6c0.6 0.6 1.4 0.9 2.1 0.9 0.8 0 1.5-0.3 2.1-0.9l7.2-7.2c0 0 0 0 0 0 1.2-1.2 1.2-3 0-4.2zM19.9 12.7l-7.2 7.2c-0.4 0.4-1 0.4-1.4 0l-8.3-8.3v-8.6h8.6l8.3 8.3c0.4 0.4 0.4 1 0 1.4z"></path>
<path d="M6.3 6.3c-0.2 0.2-0.3 0.4-0.3 0.7s0.1 0.5 0.3 0.7c0.2 0.2 0.4 0.3 0.7 0.3s0.5-0.1 0.7-0.3c0.2-0.2 0.3-0.4 0.3-0.7s-0.1-0.5-0.3-0.7c-0.4-0.4-1-0.4-1.4 0z"></path>
</svg>
